<svg width="20" height="24" viewBox="0 0 20 24" fill="none" xmlns="http://www.w3.org/2000/svg"><path fill-rule="evenodd" clip-rule="evenodd" d="M0 3.059h7.36V0h5.28v3.059H20V7.61h-1.345l-1.531 15.77H2.876L1.345 7.61H0V3.06zM11.785.854h-3.57v2.205h3.57V.854zm-8.134 21.67H16.35l1.448-14.913H2.203L3.65 22.525zM19.146 6.758V3.913H.854v2.844h18.292z" fill="currentColor"/><path fill-rule="evenodd" clip-rule="evenodd" d="M9.555 10.887h.854v8.362h-.854v-8.362zm3.375 8.364l.392-8.362h.855l-.392 8.362h-.855zm-6.714 0l-.392-8.362h.855l.392 8.362h-.855z" fill="currentColor"/>




</svg>
